{
	"asset":{
		"generator":"Khronos glTF Blender I/O v3.5.30",
		"version":"2.0"
	},
	"extensionsUsed":[
		"KHR_materials_specular",
		"KHR_materials_ior"
	],
	"scene":0,
	"scenes":[
		{
			"name":"Scene",
			"nodes":[
				0,
				1,
				2,
				3,
				4,
				5,
				6,
				7
			]
		}
	],
	"nodes":[
		{
			"mesh":0,
			"name":"Sphere",
			"rotation":[
				0.47013840079307556,
				0.009919663891196251,
				-0.3832675814628601,
				0.7949700951576233
			]
		},
		{
			"mesh":1,
			"name":"Sphere.001",
			"rotation":[
				0.47013840079307556,
				0.009919663891196251,
				-0.3832675814628601,
				0.7949700951576233
			]
		},
		{
			"mesh":2,
			"name":"Sphere.002",
			"rotation":[
				0.47013840079307556,
				0.009919663891196251,
				-0.3832675814628601,
				0.7949700951576233
			]
		},
		{
			"mesh":3,
			"name":"Sphere.003",
			"rotation":[
				0.47013840079307556,
				0.009919663891196251,
				-0.3832675814628601,
				0.7949700951576233
			]
		},
		{
			"mesh":4,
			"name":"Sphere.004",
			"rotation":[
				0.47013840079307556,
				0.009919663891196251,
				-0.3832675814628601,
				0.7949700951576233
			]
		},
		{
			"mesh":5,
			"name":"Sphere.005",
			"rotation":[
				0.47013840079307556,
				0.009919663891196251,
				-0.3832675814628601,
				0.7949700951576233
			]
		},
		{
			"mesh":6,
			"name":"Sphere.006",
			"rotation":[
				0.47013840079307556,
				0.009919663891196251,
				-0.3832675814628601,
				0.7949700951576233
			]
		},
		{
			"mesh":7,
			"name":"Sphere.007",
			"rotation":[
				0.47013840079307556,
				0.009919663891196251,
				-0.3832675814628601,
				0.7949700951576233
			]
		}
	],
	"materials":[
		{
			"doubleSided":true,
			"extensions":{
				"KHR_materials_specular":{
					"specularColorFactor":[
						2.0994130272509883,
						2.0994130272509883,
						2.0994130272509883
					]
				},
				"KHR_materials_ior":{
					"ior":1.4500000476837158
				}
			},
			"name":"Material.001",
			"pbrMetallicRoughness":{
				"baseColorFactor":[
					0.19711971282958984,
					0.0043015023693442345,
					0,
					1
				],
				"metallicFactor":0.8990825414657593,
				"roughnessFactor":0.5
			}
		},
		{
			"doubleSided":true,
			"name":"Material.002",
			"pbrMetallicRoughness":{
				"baseColorFactor":[
					0.0034014242701232433,
					0,
					0.0037691418547183275,
					1
				],
				"metallicFactor":0,
				"roughnessFactor":0.5
			}
		},
		{
			"doubleSided":true,
			"extensions":{
				"KHR_materials_specular":{
					"specularColorFactor":[
						1.9906350227621106,
						1.9906350227621106,
						1.9906350227621106
					]
				},
				"KHR_materials_ior":{
					"ior":1.4500000476837158
				}
			},
			"name":"Material.003",
			"pbrMetallicRoughness":{
				"baseColorFactor":[
					0.849073588848114,
					0.4541204869747162,
					0,
					1
				],
				"metallicFactor":0.6788991093635559,
				"roughnessFactor":0.39908257126808167
			}
		}
	],
	"meshes":[
		{
			"name":"Sphere.001",
			"primitives":[
				{
					"attributes":{
						"POSITION":0,
						"TEXCOORD_0":1,
						"NORMAL":2
					},
					"indices":3,
					"material":0
				}
			]
		},
		{
			"name":"Sphere.002",
			"primitives":[
				{
					"attributes":{
						"POSITION":4,
						"TEXCOORD_0":5,
						"NORMAL":6
					},
					"indices":7
				}
			]
		},
		{
			"name":"Sphere.003",
			"primitives":[
				{
					"attributes":{
						"POSITION":8,
						"TEXCOORD_0":9,
						"NORMAL":10
					},
					"indices":11,
					"material":1
				}
			]
		},
		{
			"name":"Sphere.004",
			"primitives":[
				{
					"attributes":{
						"POSITION":12,
						"TEXCOORD_0":13,
						"NORMAL":14
					},
					"indices":15,
					"material":2
				}
			]
		},
		{
			"name":"Sphere.005",
			"primitives":[
				{
					"attributes":{
						"POSITION":16,
						"TEXCOORD_0":17,
						"NORMAL":18
					},
					"indices":19,
					"material":2
				}
			]
		},
		{
			"name":"Sphere.006",
			"primitives":[
				{
					"attributes":{
						"POSITION":20,
						"TEXCOORD_0":21,
						"NORMAL":22
					},
					"indices":23,
					"material":2
				}
			]
		},
		{
			"name":"Sphere.007",
			"primitives":[
				{
					"attributes":{
						"POSITION":24,
						"TEXCOORD_0":25,
						"NORMAL":26
					},
					"indices":27,
					"material":2
				}
			]
		},
		{
			"name":"Sphere.008",
			"primitives":[
				{
					"attributes":{
						"POSITION":28,
						"TEXCOORD_0":29,
						"NORMAL":30
					},
					"indices":31,
					"material":2
				}
			]
		}
	],
	"accessors":[
		{
			"bufferView":0,
			"componentType":5126,
			"count":1087,
			"max":[
				1.1075971126556396,
				0.8649341464042664,
				1.107596755027771
			],
			"min":[
				-1.107596516609192,
				-1.0904790163040161,
				-1.1075974702835083
			],
			"type":"VEC3"
		},
		{
			"bufferView":1,
			"componentType":5126,
			"count":1087,
			"type":"VEC2"
		},
		{
			"bufferView":2,
			"componentType":5126,
			"count":1087,
			"type":"VEC3"
		},
		{
			"bufferView":3,
			"componentType":5123,
			"count":5415,
			"type":"SCALAR"
		},
		{
			"bufferView":4,
			"componentType":5126,
			"count":390,
			"max":[
				0.555570125579834,
				0.989290714263916,
				0.5555699467658997
			],
			"min":[
				-0.5555697679519653,
				0.8314695954322815,
				-0.5555702447891235
			],
			"type":"VEC3"
		},
		{
			"bufferView":5,
			"componentType":5126,
			"count":390,
			"type":"VEC2"
		},
		{
			"bufferView":6,
			"componentType":5126,
			"count":390,
			"type":"VEC3"
		},
		{
			"bufferView":7,
			"componentType":5123,
			"count":1920,
			"type":"SCALAR"
		},
		{
			"bufferView":8,
			"componentType":5126,
			"count":161,
			"max":[
				0.19509026408195496,
				1.0085054636001587,
				0.195090189576149
			],
			"min":[
				-0.1950901448726654,
				0.989290714263916,
				-0.19509010016918182
			],
			"type":"VEC3"
		},
		{
			"bufferView":9,
			"componentType":5126,
			"count":161,
			"type":"VEC2"
		},
		{
			"bufferView":10,
			"componentType":5126,
			"count":161,
			"type":"VEC3"
		},
		{
			"bufferView":11,
			"componentType":5123,
			"count":384,
			"type":"SCALAR"
		},
		{
			"bufferView":12,
			"componentType":5126,
			"count":9,
			"max":[
				0.5611145496368408,
				-0.9324551224708557,
				-0.09041309356689453
			],
			"min":[
				0.1637856811285019,
				-1.0904790163040161,
				-0.427256315946579
			],
			"type":"VEC3"
		},
		{
			"bufferView":13,
			"componentType":5126,
			"count":9,
			"type":"VEC2"
		},
		{
			"bufferView":14,
			"componentType":5126,
			"count":9,
			"type":"VEC3"
		},
		{
			"bufferView":15,
			"componentType":5123,
			"count":24,
			"type":"SCALAR"
		},
		{
			"bufferView":16,
			"componentType":5126,
			"count":18,
			"max":[
				-0.31823334097862244,
				-0.7071067690849304,
				0.4118514657020569
			],
			"min":[
				-0.7324054837226868,
				-0.980147123336792,
				0.07465775310993195
			],
			"type":"VEC3"
		},
		{
			"bufferView":17,
			"componentType":5126,
			"count":18,
			"type":"VEC2"
		},
		{
			"bufferView":18,
			"componentType":5126,
			"count":18,
			"type":"VEC3"
		},
		{
			"bufferView":19,
			"componentType":5123,
			"count":48,
			"type":"SCALAR"
		},
		{
			"bufferView":20,
			"componentType":5126,
			"count":39,
			"max":[
				0.9426775574684143,
				0.8649341464042664,
				-0.2126074582338333
			],
			"min":[
				0.30865827202796936,
				0.19509032368659973,
				-0.8475295901298523
			],
			"type":"VEC3"
		},
		{
			"bufferView":21,
			"componentType":5126,
			"count":39,
			"type":"VEC2"
		},
		{
			"bufferView":22,
			"componentType":5126,
			"count":39,
			"type":"VEC3"
		},
		{
			"bufferView":23,
			"componentType":5123,
			"count":129,
			"type":"SCALAR"
		},
		{
			"bufferView":24,
			"componentType":5126,
			"count":32,
			"max":[
				-0.30865779519081116,
				0.8607510924339294,
				-0.3086581528186798
			],
			"min":[
				-0.8435245156288147,
				0.19509032368659973,
				-0.8435247540473938
			],
			"type":"VEC3"
		},
		{
			"bufferView":25,
			"componentType":5126,
			"count":32,
			"type":"VEC2"
		},
		{
			"bufferView":26,
			"componentType":5126,
			"count":32,
			"type":"VEC3"
		},
		{
			"bufferView":27,
			"componentType":5123,
			"count":102,
			"type":"SCALAR"
		},
		{
			"bufferView":28,
			"componentType":5126,
			"count":39,
			"max":[
				-0.2126075029373169,
				0.8649341464042664,
				0.9426772594451904
			],
			"min":[
				-0.8475294709205627,
				0.19509032368659973,
				0.3086579442024231
			],
			"type":"VEC3"
		},
		{
			"bufferView":29,
			"componentType":5126,
			"count":39,
			"type":"VEC2"
		},
		{
			"bufferView":30,
			"componentType":5126,
			"count":39,
			"type":"VEC3"
		},
		{
			"bufferView":31,
			"componentType":5123,
			"count":129,
			"type":"SCALAR"
		}
	],
	"bufferViews":[
		{
			"buffer":0,
			"byteLength":13044,
			"byteOffset":0,
			"target":34962
		},
		{
			"buffer":0,
			"byteLength":8696,
			"byteOffset":13044,
			"target":34962
		},
		{
			"buffer":0,
			"byteLength":13044,
			"byteOffset":21740,
			"target":34962
		},
		{
			"buffer":0,
			"byteLength":10830,
			"byteOffset":34784,
			"target":34963
		},
		{
			"buffer":0,
			"byteLength":4680,
			"byteOffset":45616,
			"target":34962
		},
		{
			"buffer":0,
			"byteLength":3120,
			"byteOffset":50296,
			"target":34962
		},
		{
			"buffer":0,
			"byteLength":4680,
			"byteOffset":53416,
			"target":34962
		},
		{
			"buffer":0,
			"byteLength":3840,
			"byteOffset":58096,
			"target":34963
		},
		{
			"buffer":0,
			"byteLength":1932,
			"byteOffset":61936,
			"target":34962
		},
		{
			"buffer":0,
			"byteLength":1288,
			"byteOffset":63868,
			"target":34962
		},
		{
			"buffer":0,
			"byteLength":1932,
			"byteOffset":65156,
			"target":34962
		},
		{
			"buffer":0,
			"byteLength":768,
			"byteOffset":67088,
			"target":34963
		},
		{
			"buffer":0,
			"byteLength":108,
			"byteOffset":67856,
			"target":34962
		},
		{
			"buffer":0,
			"byteLength":72,
			"byteOffset":67964,
			"target":34962
		},
		{
			"buffer":0,
			"byteLength":108,
			"byteOffset":68036,
			"target":34962
		},
		{
			"buffer":0,
			"byteLength":48,
			"byteOffset":68144,
			"target":34963
		},
		{
			"buffer":0,
			"byteLength":216,
			"byteOffset":68192,
			"target":34962
		},
		{
			"buffer":0,
			"byteLength":144,
			"byteOffset":68408,
			"target":34962
		},
		{
			"buffer":0,
			"byteLength":216,
			"byteOffset":68552,
			"target":34962
		},
		{
			"buffer":0,
			"byteLength":96,
			"byteOffset":68768,
			"target":34963
		},
		{
			"buffer":0,
			"byteLength":468,
			"byteOffset":68864,
			"target":34962
		},
		{
			"buffer":0,
			"byteLength":312,
			"byteOffset":69332,
			"target":34962
		},
		{
			"buffer":0,
			"byteLength":468,
			"byteOffset":69644,
			"target":34962
		},
		{
			"buffer":0,
			"byteLength":258,
			"byteOffset":70112,
			"target":34963
		},
		{
			"buffer":0,
			"byteLength":384,
			"byteOffset":70372,
			"target":34962
		},
		{
			"buffer":0,
			"byteLength":256,
			"byteOffset":70756,
			"target":34962
		},
		{
			"buffer":0,
			"byteLength":384,
			"byteOffset":71012,
			"target":34962
		},
		{
			"buffer":0,
			"byteLength":204,
			"byteOffset":71396,
			"target":34963
		},
		{
			"buffer":0,
			"byteLength":468,
			"byteOffset":71600,
			"target":34962
		},
		{
			"buffer":0,
			"byteLength":312,
			"byteOffset":72068,
			"target":34962
		},
		{
			"buffer":0,
			"byteLength":468,
			"byteOffset":72380,
			"target":34962
		},
		{
			"buffer":0,
			"byteLength":258,
			"byteOffset":72848,
			"target":34963
		}
	],
	"buffers":[
		{
			"byteLength":73108,
			"uri":"eyebot.bin"
		}
	]
}
